<svg width="22" height="32" viewBox="0 0 22 32" fill="none" xmlns="http://www.w3.org/2000/svg">
<path d="M20.385 18.0707L5.3095 31.2597C3.533 32.8162 0.750001 31.5512 0.750001 29.189V2.811C0.749548 2.28233 0.901492 1.76473 1.18764 1.32019C1.47378 0.875653 1.882 0.523017 2.36341 0.304513C2.84481 0.0860098 3.379 0.0109007 3.90199 0.0881807C4.42498 0.165461 4.91461 0.391854 5.31225 0.740249L20.3823 13.9292C20.6776 14.1874 20.9144 14.5057 21.0766 14.8628C21.2388 15.22 21.3227 15.6077 21.3227 16C21.3227 16.3923 21.2388 16.78 21.0766 17.1371C20.9144 17.4943 20.6776 17.8126 20.3823 18.0707H20.385Z" fill="white"/>
</svg>
